<svg id="svg" version="1.1" xmlns="http://www.w3.org/2000/svg" xmlns:xlink="http://www.w3.org/1999/xlink" width="400" height="400" viewBox="0, 0, 400,400"><g id="svgg"><path id="path0" d="M237.125 117.779 C 234.352 117.989,228.369 118.833,226.750 119.242 C 226.269 119.364,224.925 119.700,223.764 119.989 C 221.143 120.643,216.711 122.000,216.375 122.251 C 216.238 122.354,215.844 122.516,215.500 122.611 C 215.156 122.705,213.651 123.253,212.155 123.829 L 209.434 124.875 209.592 130.250 C 209.678 133.206,209.749 152.467,209.749 173.051 L 209.750 210.478 211.438 209.824 C 224.126 204.909,231.546 203.402,243.125 203.385 C 254.813 203.368,270.067 206.650,275.938 210.444 L 276.500 210.808 276.500 167.816 L 276.500 124.825 274.938 124.184 C 261.778 118.782,250.064 116.798,237.125 117.779 M143.938 123.815 L 142.000 124.577 142.000 167.414 C 142.000 190.974,142.062 210.250,142.138 210.250 C 142.214 210.250,143.310 209.810,144.575 209.273 C 164.304 200.895,186.865 200.968,206.875 209.477 L 208.625 210.221 208.691 202.315 C 208.743 196.158,208.687 194.364,208.441 194.206 C 208.267 194.094,207.519 193.773,206.779 193.492 C 185.159 185.297,162.943 164.204,152.809 142.250 C 151.273 138.922,150.911 138.071,149.625 134.762 C 148.482 131.823,147.418 128.544,146.201 124.214 L 145.875 123.054 143.938 123.815 M205.813 124.978 C 188.728 151.075,189.398 171.586,208.042 193.196 L 208.750 194.017 208.750 165.299 C 208.750 149.504,208.824 133.885,208.914 130.589 L 209.077 124.597 207.968 124.174 C 207.358 123.941,206.804 123.750,206.738 123.750 C 206.671 123.750,206.255 124.303,205.813 124.978 " stroke="none" fill="#c3b3b3" fill-rule="evenodd"></path><path id="path1" d="M150.024 67.813 C 149.906 68.122,149.345 69.553,148.777 70.993 C 148.209 72.433,147.349 75.021,146.866 76.743 C 146.383 78.466,145.826 80.438,145.628 81.125 C 142.635 91.522,142.775 116.440,145.863 122.875 C 146.061 123.287,146.500 124.694,146.839 126.000 C 153.073 150.017,171.129 173.386,193.956 186.978 C 198.005 189.389,208.082 194.251,208.391 193.943 C 208.432 193.901,207.572 192.748,206.479 191.380 C 192.728 174.167,189.834 158.282,197.239 140.658 C 199.541 135.181,204.666 125.906,206.514 123.875 C 206.889 123.463,207.574 122.551,208.036 121.848 C 210.104 118.703,214.907 112.066,217.606 108.625 C 217.930 108.213,218.585 107.360,219.062 106.732 C 219.539 106.103,220.107 105.371,220.325 105.107 C 220.542 104.842,221.880 103.155,223.297 101.359 C 226.735 97.003,227.936 95.498,228.575 94.750 C 230.786 92.160,234.037 87.954,233.919 87.836 C 233.840 87.757,233.010 88.242,232.075 88.914 C 231.140 89.587,230.058 90.338,229.671 90.585 C 229.284 90.831,228.778 91.190,228.546 91.382 C 227.469 92.275,216.206 99.752,213.500 101.371 C 212.606 101.905,211.527 102.603,211.101 102.921 C 210.676 103.240,210.263 103.500,210.185 103.500 C 210.106 103.500,209.160 104.027,208.083 104.671 C 205.253 106.363,202.005 108.099,199.000 109.525 C 197.556 110.210,196.092 110.926,195.746 111.115 C 195.400 111.304,193.535 112.086,191.602 112.852 C 167.980 122.212,154.636 113.562,151.382 86.780 C 150.883 82.677,150.404 72.464,150.574 69.563 C 150.707 67.304,150.485 66.600,150.024 67.813 M173.745 84.259 C 165.473 86.224,161.553 96.232,166.146 103.658 C 171.780 112.767,185.859 110.890,188.906 100.625 C 191.739 91.078,183.317 81.986,173.745 84.259 M276.622 167.750 C 276.622 191.331,276.652 200.978,276.687 189.188 C 276.723 177.397,276.723 158.103,276.687 146.313 C 276.652 134.522,276.622 144.169,276.622 167.750 M145.667 224.167 C 145.575 224.258,145.500 224.933,145.500 225.667 C 145.500 227.191,145.544 227.155,144.452 226.516 C 138.633 223.110,126.564 224.212,121.090 228.650 C 116.512 232.360,116.172 241.023,120.419 245.746 C 123.013 248.632,125.996 250.185,134.875 253.273 C 140.072 255.080,142.395 256.632,143.018 258.712 C 144.696 264.313,132.736 265.065,127.411 259.693 C 125.945 258.215,125.749 257.863,125.103 255.563 C 125.037 255.328,123.926 255.250,120.633 255.250 L 116.250 255.250 116.250 263.250 L 116.250 271.250 120.221 271.250 C 124.775 271.250,124.490 271.422,124.497 268.673 L 124.500 267.222 125.563 267.873 C 129.367 270.205,133.380 271.155,138.413 270.914 C 150.027 270.357,156.021 266.520,156.436 259.375 C 156.917 251.100,152.423 246.499,139.788 242.331 C 132.353 239.879,130.187 238.820,129.368 237.236 C 127.855 234.311,130.301 232.417,135.625 232.389 C 141.200 232.360,144.684 234.557,144.953 238.270 L 145.060 239.750 149.155 239.750 L 153.250 239.750 153.250 231.875 L 153.250 224.000 149.542 224.000 C 147.502 224.000,145.758 224.075,145.667 224.167 M200.520 226.656 C 200.355 228.117,199.901 230.564,199.510 232.094 C 198.797 234.884,198.321 236.140,195.108 243.709 L 193.375 247.794 190.750 247.633 C 189.306 247.544,187.703 247.408,187.188 247.329 L 186.250 247.186 186.250 251.718 L 186.250 256.250 187.875 256.250 C 188.769 256.250,189.500 256.310,189.500 256.383 C 189.500 256.456,188.981 257.752,188.347 259.264 C 187.006 262.459,186.806 262.626,184.585 262.398 L 183.000 262.236 183.004 266.056 C 183.006 268.156,183.090 269.988,183.191 270.125 C 183.308 270.284,186.466 270.376,191.813 270.375 L 200.250 270.375 200.250 266.297 L 200.250 262.220 198.438 262.374 C 197.441 262.459,196.372 262.580,196.063 262.644 C 195.307 262.799,195.308 262.793,196.841 259.237 L 198.182 256.125 205.540 256.059 L 212.898 255.993 214.288 259.309 C 215.052 261.133,215.665 262.641,215.651 262.661 C 215.637 262.681,214.527 262.578,213.185 262.434 C 210.174 262.110,210.417 261.732,210.629 266.421 L 210.808 270.375 221.842 270.395 C 229.471 270.408,232.932 270.331,233.059 270.145 C 233.160 269.996,233.244 268.148,233.246 266.037 L 233.250 262.199 231.533 262.372 C 229.845 262.541,229.807 262.532,229.333 261.835 C 228.916 261.220,227.000 256.742,227.000 256.381 C 227.000 256.309,227.731 256.250,228.625 256.250 L 230.250 256.250 230.250 252.750 L 230.250 249.250 227.103 249.250 L 223.957 249.250 223.460 248.063 C 223.187 247.409,220.915 241.981,218.410 236.000 L 213.857 225.125 208.366 224.581 C 205.346 224.282,202.412 224.028,201.847 224.018 L 200.819 224.000 200.520 226.656 M271.875 224.785 C 265.825 224.913,260.632 225.069,260.334 225.133 C 259.808 225.245,259.793 225.359,259.762 229.407 L 259.730 233.566 260.553 233.389 C 261.804 233.119,264.526 232.767,265.438 232.758 L 266.250 232.750 266.250 247.752 L 266.250 262.754 264.813 262.618 C 261.907 262.343,260.862 262.219,260.313 262.084 L 259.750 261.946 259.754 265.910 C 259.756 268.091,259.840 269.988,259.941 270.125 C 260.059 270.286,264.331 270.375,271.875 270.375 C 279.419 270.375,283.691 270.286,283.809 270.125 C 283.910 269.988,283.994 268.145,283.996 266.030 L 284.000 262.185 282.188 262.354 C 281.191 262.446,280.009 262.586,279.563 262.664 L 278.750 262.806 278.750 257.883 L 278.750 252.960 279.563 253.131 C 283.385 253.935,286.688 257.228,291.250 264.782 C 294.932 270.880,299.282 272.710,305.813 270.910 L 307.500 270.444 307.500 264.097 C 307.500 257.032,307.639 257.478,305.651 258.155 C 303.174 258.999,301.973 258.534,297.689 255.076 C 295.558 253.355,293.859 252.399,291.750 251.733 C 290.421 251.313,290.400 251.293,291.125 251.130 C 299.259 249.301,303.750 244.714,303.750 238.236 C 303.750 232.798,301.324 228.909,296.435 226.511 C 292.453 224.558,290.172 224.398,271.875 224.785 M287.250 233.283 C 289.893 234.518,291.039 236.330,291.029 239.262 C 291.014 244.082,287.981 246.234,281.188 246.246 L 278.750 246.250 278.750 239.347 L 278.750 232.444 282.313 232.543 C 285.497 232.631,286.021 232.709,287.250 233.283 M207.941 244.042 C 209.077 246.811,209.974 249.110,209.933 249.151 C 209.836 249.247,201.656 248.740,201.547 248.630 C 201.501 248.585,202.127 247.046,202.938 245.211 C 203.749 243.376,204.677 241.228,205.002 240.438 C 205.779 238.544,205.589 238.309,207.941 244.042 " stroke="none" fill="#fb6404" fill-rule="evenodd"></path><path id="path2" d="M209.187 132.302 C 208.773 132.607,208.745 134.783,208.687 171.423 L 208.625 210.221 206.875 209.477 C 186.794 200.939,164.496 200.885,144.438 209.326 L 142.000 210.351 142.000 214.327 C 142.000 217.412,142.070 218.274,142.313 218.172 C 146.079 216.584,149.997 215.121,152.153 214.499 C 153.650 214.067,155.337 213.559,155.903 213.371 C 168.688 209.120,189.676 210.619,205.475 216.911 L 208.825 218.245 211.100 217.353 C 212.351 216.862,213.713 216.309,214.125 216.124 C 226.588 210.535,248.411 209.435,262.750 213.672 C 265.706 214.545,270.324 216.037,270.625 216.216 C 271.250 216.587,275.391 218.179,275.528 218.101 C 275.613 218.052,275.653 216.248,275.617 214.091 L 275.553 210.169 273.294 209.229 C 257.398 202.612,238.682 201.463,222.375 206.101 C 218.540 207.192,216.003 208.056,211.438 209.824 L 209.752 210.477 209.688 171.228 C 209.628 133.877,209.604 131.994,209.187 132.302 " stroke="none" fill="#9b8484" fill-rule="evenodd"></path><path id="path3" d="M189.220 38.000 C 188.755 38.069,187.222 38.125,185.813 38.125 C 184.404 38.125,183.251 38.192,183.251 38.273 C 183.250 38.354,182.716 38.415,182.063 38.409 C 181.409 38.402,179.919 38.492,178.750 38.608 C 177.581 38.724,176.287 38.831,175.875 38.847 C 175.463 38.862,174.984 38.966,174.813 39.077 C 174.641 39.188,174.393 39.213,174.262 39.133 C 174.132 39.052,172.910 39.163,171.547 39.380 C 170.185 39.596,168.970 39.750,168.848 39.722 C 168.725 39.694,168.456 39.735,168.250 39.814 C 168.044 39.893,167.313 40.031,166.625 40.120 C 164.558 40.390,164.207 40.448,162.125 40.867 C 161.025 41.088,159.675 41.328,159.125 41.401 C 158.575 41.474,158.018 41.638,157.887 41.766 C 157.757 41.895,157.329 42.000,156.936 42.000 C 156.117 42.000,153.997 42.483,153.625 42.755 C 153.488 42.855,152.813 43.012,152.125 43.105 C 150.801 43.282,148.384 43.908,147.740 44.240 C 147.529 44.349,146.883 44.518,146.304 44.616 C 145.726 44.714,145.189 44.896,145.112 45.022 C 145.034 45.147,144.694 45.250,144.357 45.250 C 144.019 45.250,143.548 45.356,143.309 45.485 C 143.070 45.615,142.200 45.912,141.375 46.145 C 138.040 47.088,137.321 47.329,136.071 47.916 C 135.353 48.253,134.366 48.594,133.877 48.673 C 133.388 48.752,132.928 48.915,132.854 49.034 C 132.781 49.153,132.502 49.250,132.235 49.250 C 131.968 49.250,131.750 49.362,131.750 49.500 C 131.750 49.638,131.532 49.750,131.265 49.750 C 130.998 49.750,130.710 49.862,130.625 50.000 C 130.540 50.138,130.210 50.250,129.891 50.250 C 129.572 50.250,129.170 50.420,128.998 50.627 C 128.826 50.835,128.252 51.074,127.722 51.158 C 127.193 51.243,126.634 51.464,126.480 51.650 C 126.326 51.835,125.821 52.058,125.359 52.145 C 124.896 52.231,124.388 52.459,124.228 52.651 C 124.069 52.843,123.778 53.000,123.581 53.000 C 123.276 53.000,122.178 53.501,120.750 54.293 C 120.544 54.408,120.094 54.613,119.750 54.750 C 119.406 54.888,118.956 55.113,118.750 55.251 C 118.544 55.390,118.206 55.570,118.000 55.651 C 117.140 55.991,114.365 57.343,114.250 57.478 C 114.181 57.559,113.253 58.059,112.188 58.589 C 111.122 59.119,110.250 59.653,110.250 59.776 C 110.250 59.899,110.053 60.008,109.813 60.018 C 109.572 60.028,109.037 60.252,108.625 60.515 C 108.213 60.777,107.650 61.097,107.375 61.225 C 107.100 61.352,106.488 61.748,106.014 62.103 C 105.540 62.459,105.055 62.750,104.935 62.750 C 104.815 62.750,104.348 63.031,103.897 63.375 C 103.447 63.719,102.996 64.000,102.896 64.000 C 102.796 64.000,102.557 64.141,102.366 64.313 C 101.534 65.058,101.255 65.250,101.000 65.250 C 100.697 65.250,99.171 66.273,99.042 66.563 C 98.996 66.666,98.799 66.750,98.604 66.750 C 98.409 66.750,98.250 66.834,98.250 66.938 C 98.250 67.041,97.687 67.441,97.000 67.827 C 96.312 68.213,95.750 68.635,95.750 68.764 C 95.750 68.894,95.581 69.000,95.375 69.000 C 95.169 69.000,95.000 69.112,95.000 69.250 C 95.000 69.388,94.881 69.500,94.735 69.500 C 94.510 69.500,92.630 70.836,92.250 71.266 C 92.181 71.344,91.586 71.775,90.928 72.223 C 90.270 72.670,89.596 73.254,89.430 73.519 C 89.265 73.783,89.012 74.000,88.869 74.000 C 88.725 74.000,88.235 74.309,87.780 74.688 C 87.324 75.066,86.428 75.798,85.788 76.316 C 84.365 77.467,83.328 78.339,81.375 80.030 C 80.550 80.744,79.706 81.467,79.500 81.636 C 76.828 83.826,66.866 94.308,62.677 99.338 C 62.236 99.868,61.477 100.768,60.991 101.338 C 60.505 101.908,59.774 102.815,59.366 103.353 C 58.958 103.892,58.231 104.848,57.750 105.479 C 57.009 106.450,55.935 107.989,54.000 110.851 C 53.794 111.156,53.203 111.976,52.687 112.674 C 52.172 113.371,51.750 114.019,51.750 114.113 C 51.750 114.207,51.469 114.652,51.125 115.103 C 50.781 115.553,50.500 116.008,50.500 116.113 C 50.500 116.217,50.163 116.729,49.750 117.250 C 49.338 117.771,49.000 118.263,49.000 118.344 C 49.000 118.424,48.623 119.083,48.163 119.808 C 47.323 121.129,46.935 121.805,44.754 125.750 C 42.911 129.083,42.804 129.286,42.057 130.875 C 41.669 131.700,41.231 132.600,41.083 132.875 C 40.524 133.918,37.412 141.015,36.752 142.750 C 36.569 143.231,36.325 143.732,36.210 143.862 C 36.094 143.993,36.000 144.306,36.000 144.559 C 36.000 144.811,35.822 145.289,35.605 145.621 C 35.387 145.952,35.185 146.370,35.155 146.549 C 35.125 146.729,34.981 147.100,34.835 147.375 C 34.689 147.650,34.493 148.213,34.401 148.625 C 34.308 149.037,34.082 149.713,33.897 150.125 C 33.448 151.129,32.960 152.537,32.900 153.004 C 32.873 153.213,32.790 153.494,32.714 153.629 C 32.638 153.764,32.266 154.887,31.887 156.125 C 31.507 157.363,31.077 158.628,30.931 158.937 C 30.785 159.246,30.736 159.570,30.822 159.656 C 30.908 159.742,30.758 160.243,30.489 160.771 C 30.220 161.298,30.000 161.967,30.000 162.256 C 30.000 162.546,29.900 162.972,29.777 163.204 C 29.654 163.436,29.489 164.019,29.411 164.500 C 29.332 164.981,29.029 166.275,28.738 167.375 C 28.176 169.502,27.824 171.077,27.592 172.500 C 27.514 172.981,27.343 173.574,27.213 173.818 C 27.083 174.061,27.046 174.373,27.131 174.510 C 27.216 174.647,27.147 175.179,26.977 175.692 C 26.807 176.205,26.637 176.906,26.600 177.250 C 26.563 177.594,26.410 178.550,26.261 179.375 C 26.112 180.200,25.931 181.325,25.859 181.875 C 25.787 182.425,25.676 183.213,25.613 183.625 C 25.479 184.500,25.309 185.912,24.875 189.750 C 24.805 190.369,24.689 191.719,24.617 192.750 C 24.545 193.781,24.417 195.300,24.332 196.125 C 24.003 199.328,24.151 218.829,24.510 219.750 C 24.537 219.819,24.548 219.952,24.535 220.045 C 24.489 220.375,25.264 227.406,25.632 230.000 C 25.837 231.444,26.000 232.991,25.995 233.438 C 25.989 233.888,26.112 234.250,26.271 234.250 C 26.448 234.250,26.509 234.509,26.429 234.925 C 26.358 235.296,26.414 235.887,26.553 236.237 C 26.692 236.588,26.800 237.209,26.793 237.618 C 26.786 238.026,26.876 238.476,26.992 238.618 C 27.109 238.759,27.268 239.438,27.347 240.125 C 27.425 240.813,27.604 241.768,27.745 242.248 C 27.885 242.729,28.000 243.488,28.000 243.936 C 28.000 244.384,28.113 244.750,28.250 244.750 C 28.387 244.750,28.500 245.035,28.500 245.383 C 28.500 245.731,28.668 246.418,28.873 246.910 C 29.079 247.401,29.180 247.910,29.099 248.042 C 29.018 248.173,29.059 248.583,29.191 248.953 C 29.322 249.322,29.627 250.300,29.869 251.125 C 30.110 251.950,30.395 252.850,30.501 253.125 C 30.608 253.400,30.888 254.356,31.125 255.250 C 31.362 256.144,31.640 257.100,31.743 257.375 C 31.846 257.650,32.128 258.550,32.369 259.375 C 32.611 260.200,33.013 261.325,33.262 261.875 C 33.512 262.425,33.855 263.325,34.024 263.875 C 34.782 266.334,35.334 267.750,35.533 267.750 C 35.653 267.750,35.750 268.007,35.750 268.322 C 35.750 268.637,35.975 269.336,36.250 269.875 C 36.525 270.414,36.750 271.002,36.750 271.181 C 36.750 271.360,36.855 271.702,36.984 271.941 C 37.112 272.180,37.365 272.741,37.545 273.188 C 37.725 273.634,37.957 274.000,38.061 274.000 C 38.165 274.000,38.250 274.197,38.249 274.438 C 38.249 274.678,38.465 275.325,38.731 275.875 C 38.996 276.425,39.737 278.000,40.377 279.375 C 41.017 280.750,41.645 282.044,41.772 282.250 C 41.899 282.456,42.059 282.766,42.127 282.938 C 42.194 283.109,42.308 283.391,42.379 283.563 C 42.450 283.734,43.064 284.887,43.744 286.125 C 44.424 287.363,45.212 288.853,45.496 289.438 C 45.780 290.022,46.122 290.500,46.256 290.500 C 46.390 290.500,46.500 290.651,46.500 290.837 C 46.500 291.338,47.252 292.750,47.518 292.750 C 47.646 292.750,47.750 292.936,47.750 293.164 C 47.750 293.392,48.031 293.947,48.375 294.397 C 48.719 294.848,49.000 295.317,49.000 295.439 C 49.000 295.561,49.334 296.103,49.743 296.643 C 50.152 297.183,50.489 297.717,50.493 297.830 C 50.497 297.943,50.641 298.193,50.813 298.384 C 51.491 299.141,51.750 299.485,51.750 299.632 C 51.750 299.716,52.087 300.275,52.500 300.875 C 52.912 301.475,53.250 302.085,53.250 302.233 C 53.250 302.380,53.344 302.500,53.459 302.500 C 53.574 302.500,54.268 303.411,55.000 304.524 C 55.733 305.636,56.482 306.605,56.666 306.675 C 56.850 306.746,57.000 306.960,57.000 307.152 C 57.000 307.343,57.112 307.500,57.250 307.500 C 57.388 307.500,57.500 307.617,57.500 307.760 C 57.500 308.142,58.993 310.160,60.187 311.392 C 60.359 311.569,60.503 311.807,60.506 311.920 C 60.509 312.033,60.900 312.575,61.374 313.125 C 63.550 315.647,64.167 316.365,64.750 317.053 C 65.094 317.459,65.769 318.222,66.250 318.750 C 66.731 319.277,67.575 320.250,68.125 320.912 C 69.694 322.801,80.020 333.000,80.364 333.000 C 80.411 333.000,80.827 333.366,81.288 333.813 C 81.748 334.260,82.733 335.132,83.475 335.750 C 84.218 336.369,85.006 337.044,85.227 337.250 C 85.448 337.456,86.353 338.188,87.239 338.875 C 88.124 339.563,89.044 340.294,89.282 340.500 C 90.118 341.225,90.480 341.500,90.599 341.500 C 90.665 341.500,91.089 341.837,91.540 342.250 C 91.992 342.662,92.509 343.000,92.689 343.000 C 92.868 343.000,93.080 343.169,93.160 343.375 C 93.239 343.581,93.455 343.750,93.639 343.750 C 93.824 343.750,94.065 343.894,94.175 344.070 C 94.404 344.437,101.399 349.105,102.063 349.334 C 102.303 349.416,102.500 349.583,102.500 349.703 C 102.500 349.823,102.922 350.136,103.438 350.398 C 103.953 350.660,104.713 351.112,105.125 351.402 C 105.537 351.692,106.494 352.249,107.250 352.640 C 108.006 353.031,108.802 353.496,109.017 353.673 C 109.788 354.306,118.030 358.513,122.250 360.427 C 124.668 361.524,125.098 361.710,126.500 362.264 C 127.256 362.564,128.325 363.015,128.875 363.267 C 130.573 364.047,134.167 365.500,134.397 365.500 C 134.583 365.500,135.877 365.971,137.875 366.766 C 138.412 366.979,144.235 368.775,146.500 369.426 C 147.256 369.643,148.156 369.912,148.500 370.024 C 149.214 370.256,151.150 370.759,151.831 370.891 C 152.084 370.939,152.478 371.036,152.707 371.105 C 152.937 371.174,153.463 371.301,153.875 371.387 C 155.089 371.641,156.670 371.982,157.875 372.250 C 160.722 372.883,163.685 373.478,164.750 373.632 C 165.094 373.681,166.556 373.901,168.000 374.121 C 171.999 374.728,173.301 374.888,176.125 375.114 C 177.225 375.202,178.294 375.324,178.500 375.384 C 179.397 375.645,185.721 375.843,193.125 375.844 C 201.815 375.844,203.937 375.750,209.625 375.118 C 211.688 374.889,213.825 374.655,214.375 374.598 C 214.925 374.541,215.713 374.447,216.125 374.389 C 216.537 374.331,217.438 374.210,218.125 374.120 C 218.813 374.031,219.544 373.889,219.750 373.806 C 219.956 373.723,220.463 373.626,220.875 373.592 C 221.287 373.557,222.188 373.418,222.875 373.282 C 223.563 373.147,225.419 372.801,227.000 372.513 C 228.581 372.226,230.100 371.889,230.375 371.764 C 230.947 371.505,231.933 371.286,233.375 371.097 C 233.925 371.026,234.482 370.862,234.612 370.733 C 234.743 370.605,235.066 370.500,235.329 370.500 C 235.751 370.500,237.409 370.027,238.875 369.488 C 240.026 369.065,242.087 368.500,242.479 368.500 C 242.710 368.500,243.007 368.407,243.138 368.292 C 243.268 368.178,244.106 367.884,245.000 367.640 C 245.894 367.395,246.850 367.109,247.125 367.004 C 247.400 366.898,248.300 366.617,249.125 366.379 C 249.950 366.141,250.794 365.802,251.000 365.626 C 251.206 365.450,251.760 365.224,252.230 365.124 C 252.700 365.024,253.847 364.617,254.779 364.221 C 255.710 363.824,256.651 363.500,256.869 363.500 C 257.087 363.500,257.330 363.331,257.410 363.125 C 257.489 362.919,257.787 362.750,258.073 362.750 C 258.532 362.750,260.051 362.155,261.309 361.482 C 261.548 361.354,261.913 361.250,262.122 361.250 C 262.330 361.250,262.500 361.137,262.500 361.000 C 262.500 360.863,262.658 360.750,262.851 360.750 C 263.168 360.750,264.787 360.034,265.750 359.467 C 265.956 359.346,266.294 359.182,266.500 359.104 C 267.467 358.735,270.634 357.104,270.708 356.938 C 270.754 356.834,271.001 356.750,271.256 356.750 C 271.512 356.750,271.778 356.657,271.848 356.544 C 271.918 356.430,272.740 355.956,273.675 355.490 C 274.610 355.023,275.712 354.413,276.125 354.133 C 277.233 353.381,277.765 353.065,278.875 352.500 C 279.939 351.959,280.795 351.455,281.000 351.250 C 281.253 350.997,282.137 350.481,282.563 350.339 C 282.803 350.258,283.000 350.092,283.000 349.971 C 283.000 349.849,283.219 349.750,283.488 349.750 C 283.756 349.750,284.065 349.609,284.175 349.438 C 284.285 349.266,284.769 348.909,285.250 348.645 C 285.731 348.380,286.215 348.015,286.325 347.832 C 286.435 347.649,286.688 347.500,286.887 347.500 C 287.087 347.500,287.250 347.387,287.250 347.250 C 287.250 347.113,287.357 347.000,287.487 347.000 C 287.766 347.000,290.011 345.553,290.375 345.139 C 290.512 344.982,291.047 344.597,291.563 344.282 C 292.078 343.967,292.500 343.606,292.500 343.480 C 292.500 343.353,292.643 343.250,292.817 343.250 C 293.091 343.250,294.246 342.401,296.146 340.801 C 296.432 340.560,296.974 340.161,297.350 339.914 C 297.726 339.668,298.237 339.277,298.485 339.046 C 298.733 338.814,299.260 338.377,299.656 338.073 C 300.051 337.770,300.676 337.264,301.044 336.948 C 301.413 336.633,302.127 336.038,302.633 335.625 C 303.138 335.212,303.866 334.594,304.250 334.250 C 304.633 333.906,305.472 333.175,306.113 332.625 C 308.142 330.885,308.500 330.531,308.500 330.262 C 308.500 330.118,308.613 330.000,308.750 330.000 C 308.888 330.000,309.591 329.392,310.313 328.648 C 311.444 327.483,315.450 324.500,315.885 324.500 C 315.966 324.500,316.402 324.219,316.853 323.875 C 317.303 323.531,317.785 323.250,317.922 323.250 C 318.060 323.250,318.356 323.047,318.581 322.799 C 318.805 322.551,319.385 322.192,319.870 322.002 C 320.354 321.812,320.750 321.509,320.750 321.328 C 320.750 321.148,320.975 321.000,321.250 321.000 C 321.525 321.000,321.750 320.887,321.750 320.750 C 321.750 320.613,321.858 320.500,321.989 320.500 C 322.249 320.500,323.731 319.581,324.790 318.763 C 325.155 318.481,325.538 318.250,325.641 318.250 C 325.744 318.250,326.197 317.969,326.647 317.625 C 327.098 317.281,327.559 316.997,327.671 316.993 C 327.783 316.989,328.317 316.652,328.857 316.243 C 329.397 315.834,329.961 315.500,330.110 315.500 C 330.258 315.500,330.683 315.219,331.054 314.875 C 331.425 314.531,331.854 314.250,332.007 314.250 C 332.160 314.250,332.443 314.109,332.634 313.938 C 333.410 313.241,333.685 313.054,334.144 312.908 C 334.409 312.824,334.929 312.473,335.302 312.128 C 335.674 311.782,336.085 311.500,336.216 311.500 C 336.419 311.500,338.679 310.080,341.052 308.462 C 341.425 308.208,341.847 308.000,341.990 308.000 C 342.133 308.000,342.250 307.887,342.250 307.750 C 342.250 307.613,342.413 307.500,342.613 307.500 C 342.812 307.500,343.065 307.354,343.175 307.177 C 343.285 306.999,343.712 306.686,344.125 306.482 C 345.473 305.816,347.500 304.462,347.500 304.229 C 347.500 304.103,347.725 304.000,348.000 304.000 C 348.275 304.000,348.500 303.887,348.500 303.750 C 348.500 303.613,348.641 303.497,348.813 303.493 C 349.607 303.475,353.747 299.010,354.486 297.375 C 355.289 295.597,354.946 291.500,353.994 291.500 C 353.878 291.500,353.712 291.275,353.625 291.000 C 353.193 289.640,349.160 287.294,346.945 287.114 C 346.433 287.072,345.895 286.964,345.748 286.874 C 344.939 286.374,337.384 286.646,335.875 287.229 C 334.701 287.682,332.796 288.217,331.767 288.382 C 331.158 288.479,330.283 288.771,329.822 289.030 C 329.362 289.288,328.771 289.500,328.510 289.500 C 328.249 289.500,327.875 289.661,327.679 289.857 C 327.482 290.053,326.912 290.291,326.411 290.385 C 325.910 290.479,325.500 290.651,325.500 290.768 C 325.500 290.885,324.923 291.152,324.218 291.361 C 323.513 291.571,322.810 291.846,322.655 291.972 C 322.501 292.099,321.777 292.397,321.046 292.635 C 320.315 292.873,319.581 293.204,319.415 293.371 C 319.249 293.537,318.705 293.750,318.206 293.843 C 317.708 293.937,317.163 294.179,316.995 294.382 C 316.826 294.584,316.449 294.750,316.157 294.751 C 315.864 294.751,315.257 294.976,314.806 295.251 C 314.356 295.525,313.766 295.750,313.494 295.750 C 313.222 295.750,313.000 295.863,313.000 296.000 C 313.000 296.137,312.719 296.250,312.375 296.250 C 312.031 296.250,311.750 296.344,311.750 296.460 C 311.750 296.575,311.272 296.827,310.688 297.020 C 310.103 297.212,309.236 297.568,308.760 297.810 C 308.284 298.052,307.705 298.250,307.474 298.250 C 307.243 298.250,306.995 298.403,306.923 298.590 C 306.851 298.776,306.341 299.001,305.789 299.090 C 305.237 299.178,304.617 299.419,304.411 299.625 C 304.204 299.831,303.881 300.000,303.693 300.000 C 303.219 300.000,302.004 300.584,302.002 300.813 C 302.001 300.916,301.725 301.000,301.390 301.000 C 301.054 301.000,300.710 301.113,300.625 301.250 C 300.540 301.387,300.196 301.500,299.860 301.500 C 299.525 301.500,299.250 301.590,299.250 301.700 C 299.250 301.928,297.785 302.500,297.200 302.500 C 296.986 302.500,296.674 302.666,296.505 302.868 C 296.337 303.071,295.816 303.309,295.347 303.397 C 294.878 303.485,294.438 303.648,294.369 303.760 C 294.300 303.872,293.823 304.096,293.309 304.259 C 292.373 304.554,290.465 305.382,288.664 306.274 C 288.135 306.536,287.547 306.750,287.357 306.750 C 287.167 306.750,286.644 306.975,286.194 307.249 C 285.743 307.524,285.134 307.749,284.839 307.749 C 284.545 307.750,284.244 307.905,284.172 308.093 C 284.099 308.282,283.609 308.517,283.082 308.615 C 282.556 308.712,281.956 308.932,281.750 309.103 C 281.544 309.274,280.897 309.550,280.313 309.717 C 279.728 309.884,279.250 310.108,279.250 310.215 C 279.250 310.322,278.688 310.563,278.000 310.750 C 277.313 310.937,276.750 311.183,276.750 311.295 C 276.750 311.408,276.532 311.500,276.265 311.500 C 275.998 311.500,275.710 311.613,275.625 311.750 C 275.540 311.887,275.252 312.000,274.985 312.000 C 274.718 312.000,274.500 312.113,274.500 312.250 C 274.500 312.387,274.359 312.501,274.188 312.502 C 273.346 312.509,271.250 313.748,271.250 314.238 C 271.250 314.520,271.342 314.750,271.455 314.750 C 271.568 314.750,272.130 315.153,272.705 315.644 C 273.280 316.136,273.750 316.478,273.750 316.403 C 273.750 316.328,274.494 316.966,275.404 317.821 C 277.238 319.545,279.000 321.771,279.000 322.364 C 279.000 322.576,279.095 322.750,279.210 322.750 C 279.615 322.750,279.966 324.638,279.861 326.250 C 279.758 327.844,279.616 328.361,278.732 330.375 C 278.089 331.841,275.843 334.067,273.875 335.190 C 271.777 336.386,268.622 337.762,267.592 337.929 C 267.122 338.005,266.678 338.165,266.604 338.284 C 266.531 338.403,266.112 338.501,265.673 338.501 C 264.944 338.503,263.433 338.819,262.500 339.167 C 262.294 339.244,261.788 339.343,261.375 339.388 C 259.367 339.606,256.686 340.019,256.250 340.178 C 256.044 340.253,255.369 340.349,254.750 340.391 C 254.131 340.433,253.119 340.536,252.500 340.621 C 246.666 341.416,233.202 341.547,226.125 340.877 C 225.713 340.838,224.822 340.794,224.146 340.778 C 223.470 340.763,222.989 340.677,223.078 340.588 C 223.261 340.406,223.793 340.352,227.500 340.141 C 228.944 340.059,230.463 339.931,230.875 339.857 C 231.287 339.783,232.356 339.682,233.250 339.633 C 234.144 339.584,234.875 339.525,234.875 339.501 C 234.875 339.476,235.381 339.424,236.000 339.383 C 236.619 339.342,238.137 339.221,239.375 339.115 C 240.613 339.008,241.934 338.896,242.313 338.866 C 242.691 338.837,243.084 338.781,243.188 338.744 C 243.291 338.706,243.713 338.651,244.125 338.621 C 244.537 338.592,245.438 338.490,246.125 338.394 C 246.813 338.298,247.825 338.181,248.375 338.133 C 248.925 338.086,249.544 337.990,249.750 337.920 C 249.956 337.850,250.688 337.719,251.375 337.630 C 252.063 337.540,252.963 337.412,253.375 337.345 C 253.787 337.278,254.463 337.190,254.875 337.150 C 255.287 337.111,255.794 337.008,256.000 336.922 C 256.206 336.836,256.825 336.712,257.375 336.647 C 258.959 336.459,259.999 336.204,260.145 335.968 C 260.219 335.848,260.617 335.750,261.029 335.750 C 262.035 335.750,264.036 335.250,264.500 334.883 C 264.706 334.720,265.381 334.443,266.000 334.269 C 266.619 334.094,267.519 333.746,268.000 333.496 C 268.481 333.245,269.241 332.891,269.688 332.709 C 270.134 332.527,270.500 332.237,270.500 332.064 C 270.500 331.891,270.673 331.750,270.885 331.750 C 271.413 331.750,272.750 330.731,272.750 330.328 C 272.750 330.148,272.925 330.000,273.140 330.000 C 273.354 330.000,273.463 329.893,273.383 329.763 C 273.302 329.632,273.438 329.417,273.686 329.284 C 275.146 328.503,275.461 322.498,274.084 321.675 C 273.901 321.565,273.750 321.333,273.750 321.160 C 273.750 320.584,270.531 317.750,269.877 317.750 C 269.790 317.750,269.009 317.408,268.141 316.989 C 267.273 316.571,266.240 316.172,265.844 316.103 C 265.449 316.034,264.788 315.877,264.375 315.755 C 262.338 315.154,261.334 314.955,258.625 314.616 C 258.350 314.582,257.506 314.473,256.750 314.373 C 255.994 314.274,254.981 314.157,254.500 314.113 C 254.019 314.069,253.175 313.975,252.625 313.904 C 252.075 313.833,250.950 313.720,250.125 313.653 C 249.300 313.586,247.669 313.421,246.500 313.287 C 245.331 313.153,244.206 313.035,244.000 313.025 C 243.794 313.016,243.119 312.954,242.500 312.888 C 239.437 312.562,238.764 312.495,237.375 312.380 C 236.550 312.311,234.919 312.196,233.750 312.125 C 232.581 312.054,231.063 311.939,230.375 311.871 C 229.688 311.802,228.431 311.693,227.583 311.629 C 226.734 311.564,225.609 311.455,225.083 311.386 C 222.441 311.043,218.805 310.515,218.250 310.394 C 216.628 310.042,216.317 309.981,215.500 309.854 C 213.843 309.598,213.584 309.553,212.231 309.287 C 211.485 309.141,210.425 308.958,209.875 308.881 C 209.325 308.804,208.256 308.635,207.500 308.506 C 206.744 308.376,205.675 308.193,205.125 308.099 C 204.575 308.005,203.844 307.896,203.500 307.858 C 203.156 307.819,202.109 307.666,201.173 307.518 C 200.236 307.369,198.717 307.183,197.798 307.104 C 196.878 307.024,195.731 306.919,195.250 306.870 C 194.769 306.821,193.869 306.729,193.250 306.666 C 186.877 306.018,177.275 306.012,170.750 306.650 C 167.793 306.940,165.837 307.178,164.750 307.381 C 164.406 307.445,163.692 307.563,163.164 307.643 C 158.581 308.337,151.518 309.931,150.441 310.515 C 150.202 310.644,149.830 310.750,149.613 310.750 C 149.210 310.750,147.024 311.379,146.125 311.753 C 145.850 311.867,145.147 312.027,144.563 312.109 C 143.978 312.190,143.022 312.409,142.438 312.595 C 141.853 312.782,140.700 313.127,139.875 313.362 C 139.050 313.598,138.094 313.880,137.750 313.990 C 137.406 314.101,136.450 314.389,135.625 314.631 C 134.800 314.872,133.900 315.155,133.625 315.260 C 133.350 315.364,132.309 315.694,131.313 315.992 C 130.316 316.291,129.500 316.614,129.500 316.711 C 129.500 316.893,127.723 317.426,126.313 317.666 C 125.866 317.742,125.500 317.905,125.500 318.027 C 125.500 318.150,125.288 318.250,125.029 318.250 C 124.590 318.250,122.521 318.812,121.375 319.242 C 121.100 319.345,120.256 319.612,119.500 319.834 C 118.744 320.056,117.587 320.410,116.929 320.619 C 115.338 321.126,115.438 321.149,114.049 319.938 C 113.379 319.353,112.391 318.498,111.853 318.038 C 106.442 313.408,96.748 303.574,93.875 299.801 C 93.737 299.621,93.259 299.089,92.813 298.620 C 92.366 298.151,91.999 297.679,91.999 297.571 C 91.998 297.463,91.661 297.015,91.249 296.576 C 90.837 296.137,90.500 295.707,90.500 295.621 C 90.500 295.535,90.359 295.322,90.188 295.148 C 90.016 294.975,89.650 294.511,89.375 294.117 C 89.100 293.723,88.594 293.101,88.250 292.734 C 87.906 292.367,87.403 291.645,87.133 291.129 C 86.862 290.614,86.496 290.137,86.320 290.069 C 86.144 290.002,86.000 289.834,86.000 289.697 C 86.000 289.559,85.662 289.021,85.250 288.500 C 84.837 287.979,84.500 287.429,84.500 287.277 C 84.500 287.124,84.388 287.000,84.250 287.000 C 84.112 287.000,84.000 286.831,84.000 286.625 C 84.000 286.419,83.895 286.250,83.766 286.250 C 83.637 286.250,83.225 285.688,82.851 285.000 C 82.477 284.313,82.076 283.750,81.960 283.750 C 81.845 283.750,81.750 283.573,81.750 283.357 C 81.750 283.141,81.609 282.807,81.438 282.616 C 80.785 281.888,80.502 281.447,79.280 279.250 C 78.936 278.631,78.592 278.069,78.515 278.000 C 78.438 277.931,78.150 277.434,77.875 276.896 C 76.762 274.716,76.434 274.119,76.283 274.000 C 76.196 273.931,75.623 272.863,75.010 271.625 C 74.397 270.387,73.807 269.338,73.698 269.292 C 73.589 269.246,73.500 269.001,73.500 268.747 C 73.500 268.493,73.348 268.134,73.163 267.948 C 72.977 267.763,72.687 267.192,72.518 266.681 C 72.349 266.169,72.107 265.750,71.981 265.750 C 71.854 265.750,71.750 265.528,71.750 265.258 C 71.750 264.987,71.525 264.365,71.250 263.875 C 70.975 263.385,70.750 262.819,70.750 262.617 C 70.750 262.415,70.652 262.250,70.532 262.250 C 70.413 262.250,70.174 261.746,70.001 261.130 C 69.829 260.514,69.542 259.888,69.363 259.740 C 69.185 259.592,68.963 259.020,68.870 258.468 C 68.776 257.917,68.543 257.405,68.350 257.331 C 68.158 257.257,68.000 256.915,68.000 256.571 C 68.000 256.228,67.683 255.255,67.296 254.411 C 66.909 253.566,66.391 252.200,66.146 251.375 C 65.710 249.913,64.918 247.815,64.472 246.941 C 64.350 246.702,64.250 246.231,64.250 245.893 C 64.250 245.556,64.144 245.214,64.014 245.134 C 63.885 245.054,63.703 244.485,63.611 243.869 C 63.519 243.254,63.344 242.750,63.222 242.750 C 63.100 242.750,63.000 242.512,63.000 242.221 C 63.000 241.682,62.353 239.476,61.965 238.691 C 61.847 238.452,61.750 237.968,61.750 237.614 C 61.750 236.837,61.252 234.723,60.987 234.375 C 60.883 234.238,60.723 233.536,60.632 232.816 C 60.541 232.097,60.362 231.141,60.234 230.693 C 60.105 230.245,60.000 229.512,60.000 229.064 C 60.000 228.616,59.888 228.250,59.750 228.250 C 59.612 228.250,59.500 227.817,59.500 227.287 C 59.500 226.758,59.390 225.998,59.255 225.600 C 58.977 224.778,58.201 219.432,58.230 218.537 C 58.240 218.214,58.172 217.826,58.079 217.675 C 57.985 217.524,57.882 216.889,57.849 216.263 C 57.816 215.637,57.721 214.619,57.639 214.000 C 57.226 210.907,56.999 206.432,56.916 199.750 C 56.859 195.186,56.929 192.532,57.264 186.500 C 57.291 186.019,57.454 184.275,57.626 182.625 C 57.798 180.975,57.947 179.456,57.956 179.250 C 57.971 178.941,58.404 175.943,58.860 173.000 C 59.028 171.921,59.469 169.397,59.583 168.875 C 59.642 168.600,59.773 167.869,59.874 167.250 C 59.975 166.631,60.317 165.056,60.635 163.750 C 60.952 162.444,61.265 161.037,61.328 160.625 C 61.392 160.213,61.557 159.594,61.694 159.250 C 61.831 158.906,62.076 158.006,62.237 157.250 C 62.399 156.494,62.681 155.425,62.864 154.875 C 63.047 154.325,63.497 152.863,63.865 151.625 C 64.232 150.387,64.650 149.094,64.792 148.750 C 64.935 148.406,65.101 147.857,65.162 147.529 C 65.222 147.201,65.422 146.638,65.606 146.279 C 65.790 145.919,66.024 145.235,66.127 144.758 C 66.229 144.281,66.399 143.719,66.503 143.508 C 66.725 143.057,67.239 141.833,67.504 141.125 C 68.118 139.478,68.609 138.255,69.008 137.375 C 69.258 136.825,69.764 135.615,70.133 134.685 C 70.503 133.756,70.905 132.934,71.027 132.858 C 71.150 132.782,71.250 132.552,71.250 132.345 C 71.250 131.969,72.868 128.386,73.777 126.750 C 74.044 126.269,74.610 125.144,75.034 124.250 C 75.458 123.356,75.951 122.456,76.129 122.250 C 76.306 122.044,76.918 120.975,77.488 119.875 C 78.058 118.775,78.847 117.369,79.241 116.750 C 80.569 114.666,82.000 112.185,82.000 111.967 C 82.000 111.848,82.096 111.750,82.214 111.750 C 82.393 111.750,85.921 106.601,86.219 105.906 C 86.270 105.786,86.495 105.495,86.719 105.260 C 86.942 105.025,87.294 104.578,87.500 104.268 C 87.706 103.957,88.044 103.498,88.250 103.248 C 88.456 102.997,89.244 101.980,90.000 100.988 C 90.756 99.995,91.799 98.664,92.318 98.029 C 92.837 97.394,93.343 96.762,93.443 96.624 C 93.543 96.486,94.244 95.650,95.000 94.767 C 95.756 93.883,96.656 92.831,97.000 92.429 C 97.344 92.026,98.051 91.259,98.572 90.723 C 99.093 90.188,99.431 89.748,99.322 89.746 C 99.214 89.744,99.287 89.640,99.485 89.515 C 99.682 89.390,101.824 87.338,104.244 84.956 C 108.325 80.939,110.564 78.869,112.750 77.094 C 113.231 76.703,113.681 76.315,113.750 76.233 C 113.819 76.150,114.062 75.979,114.291 75.854 C 114.519 75.728,115.138 75.226,115.666 74.739 C 116.797 73.693,119.923 71.250,120.129 71.250 C 120.207 71.250,120.576 70.964,120.948 70.615 C 121.321 70.266,122.497 69.404,123.563 68.699 C 124.628 67.995,125.500 67.346,125.500 67.257 C 125.500 67.169,125.958 66.894,126.518 66.647 C 127.078 66.400,127.596 66.041,127.670 65.849 C 127.743 65.657,127.932 65.497,128.089 65.493 C 128.246 65.489,128.817 65.152,129.357 64.743 C 129.897 64.334,130.461 64.000,130.610 64.000 C 130.758 64.000,131.183 63.719,131.554 63.375 C 131.925 63.031,132.354 62.750,132.507 62.750 C 132.660 62.750,132.943 62.609,133.134 62.438 C 133.998 61.663,134.253 61.500,134.600 61.500 C 134.804 61.500,135.038 61.391,135.121 61.257 C 135.204 61.123,135.688 60.820,136.198 60.584 C 136.708 60.347,137.473 59.894,137.899 59.577 C 138.324 59.260,138.862 59.000,139.094 59.000 C 139.326 59.000,139.580 58.831,139.660 58.625 C 139.739 58.419,140.016 58.250,140.277 58.250 C 140.537 58.250,140.750 58.138,140.750 58.000 C 140.750 57.862,140.961 57.750,141.219 57.750 C 141.478 57.750,141.829 57.581,142.000 57.375 C 142.171 57.169,142.516 57.000,142.766 57.000 C 143.016 57.000,143.287 56.892,143.369 56.760 C 143.450 56.628,144.188 56.219,145.008 55.851 C 145.829 55.483,146.500 55.085,146.500 54.966 C 146.500 54.847,146.701 54.750,146.947 54.750 C 147.193 54.750,147.836 54.525,148.375 54.250 C 148.914 53.975,149.504 53.750,149.686 53.750 C 149.867 53.750,150.080 53.581,150.160 53.375 C 150.239 53.169,150.545 53.000,150.839 52.999 C 151.134 52.999,151.743 52.774,152.194 52.499 C 152.644 52.225,153.167 52.000,153.357 52.000 C 153.655 52.000,154.455 51.653,156.309 50.719 C 156.548 50.598,156.970 50.500,157.247 50.500 C 157.523 50.500,157.750 50.392,157.750 50.260 C 157.750 50.128,158.228 49.891,158.813 49.733 C 160.003 49.410,160.366 49.275,162.060 48.525 C 162.711 48.236,163.464 48.000,163.733 48.000 C 164.001 48.000,164.281 47.902,164.355 47.783 C 164.429 47.663,164.946 47.493,165.505 47.403 C 166.064 47.314,166.714 47.140,166.948 47.016 C 167.183 46.893,168.050 46.604,168.875 46.376 C 169.700 46.147,170.656 45.870,171.000 45.760 C 171.344 45.649,172.300 45.361,173.125 45.119 C 173.950 44.878,174.850 44.592,175.125 44.484 C 175.881 44.189,177.040 43.924,177.851 43.861 C 178.648 43.799,180.319 43.336,181.164 42.942 C 181.460 42.804,181.813 42.760,181.949 42.844 C 182.085 42.927,182.686 42.828,183.285 42.623 C 184.892 42.073,195.138 40.477,197.054 40.478 C 197.428 40.478,197.801 40.369,197.884 40.235 C 197.967 40.101,198.129 40.050,198.244 40.121 C 198.360 40.193,199.505 40.144,200.789 40.013 C 202.074 39.881,204.246 39.707,205.616 39.626 C 208.333 39.464,208.380 39.450,208.164 38.886 C 208.061 38.617,207.653 38.493,206.820 38.479 C 206.163 38.467,205.287 38.426,204.875 38.389 C 200.714 38.009,190.818 37.764,189.220 38.000 M275.563 211.375 C 275.566 211.925,275.617 212.121,275.677 211.810 C 275.737 211.499,275.734 211.049,275.672 210.810 C 275.609 210.571,275.560 210.825,275.563 211.375 M95.782 276.110 C 90.763 277.740,91.994 282.787,97.768 284.251 C 100.830 285.027,101.730 285.833,100.592 286.778 C 99.382 287.782,96.250 286.922,96.250 285.586 C 96.250 285.023,96.175 285.000,94.375 285.000 L 92.500 285.000 92.500 285.697 C 92.500 290.055,101.486 291.797,104.303 287.985 C 106.365 285.195,104.548 282.362,99.971 281.232 C 96.850 280.461,95.831 279.499,97.387 278.790 C 98.776 278.157,101.000 278.836,101.000 279.893 C 101.000 280.168,101.401 280.250,102.750 280.250 L 104.500 280.250 104.499 279.438 C 104.496 276.631,99.753 274.821,95.782 276.110 M147.691 275.999 C 144.976 276.816,143.747 279.381,144.938 281.741 C 145.506 282.869,146.453 283.391,149.561 284.292 C 153.081 285.312,153.764 286.102,151.826 286.912 C 150.170 287.603,148.152 287.011,147.875 285.752 C 147.711 285.004,147.700 285.000,145.980 285.000 L 144.250 285.000 144.250 285.887 C 144.250 288.647,146.766 290.146,151.078 289.958 C 158.052 289.653,158.917 282.989,152.192 281.368 C 148.794 280.549,147.757 279.886,148.581 279.061 C 149.508 278.135,152.073 278.501,152.498 279.621 C 152.872 280.604,156.250 280.597,156.250 279.613 C 156.250 276.774,151.615 274.817,147.691 275.999 M107.000 282.875 L 107.000 289.750 109.000 289.750 L 111.000 289.750 111.000 287.000 L 111.000 284.250 113.625 284.250 L 116.250 284.250 116.250 287.000 L 116.250 289.750 118.125 289.750 L 120.000 289.750 120.000 282.875 L 120.000 276.000 118.125 276.000 L 116.250 276.000 116.250 278.625 L 116.250 281.250 113.625 281.250 L 111.000 281.250 111.000 278.625 L 111.000 276.000 109.000 276.000 L 107.000 276.000 107.000 282.875 M122.750 282.875 L 122.750 289.750 124.750 289.750 L 126.750 289.750 126.750 282.875 L 126.750 276.000 124.750 276.000 L 122.750 276.000 122.750 282.875 M129.500 282.875 L 129.500 289.750 131.375 289.750 L 133.250 289.750 133.274 287.938 C 133.297 286.135,133.303 286.120,134.336 285.213 L 135.375 284.301 136.993 287.026 L 138.611 289.750 140.929 289.750 L 143.247 289.750 142.161 288.063 C 141.563 287.134,140.390 285.313,139.554 284.015 L 138.033 281.654 140.079 279.432 C 141.204 278.210,142.331 276.937,142.583 276.605 L 143.042 276.000 140.668 276.000 L 138.295 276.000 135.835 278.783 L 133.375 281.567 133.304 278.783 L 133.234 276.000 131.367 276.000 L 129.500 276.000 129.500 282.875 M158.750 282.875 L 158.750 289.750 160.625 289.750 L 162.500 289.750 162.500 287.000 L 162.500 284.250 165.250 284.250 L 168.000 284.250 168.000 287.000 L 168.000 289.750 169.875 289.750 L 171.750 289.750 171.750 282.875 L 171.750 276.000 169.875 276.000 L 168.000 276.000 168.000 278.625 L 168.000 281.250 165.250 281.250 L 162.500 281.250 162.500 278.625 L 162.500 276.000 160.625 276.000 L 158.750 276.000 158.750 282.875 M177.793 277.313 C 174.267 286.692,173.250 289.442,173.250 289.592 C 173.250 289.691,174.113 289.738,175.167 289.698 L 177.085 289.625 177.438 288.563 L 177.792 287.500 180.466 287.500 L 183.140 287.500 183.508 288.563 L 183.875 289.625 185.939 289.698 L 188.003 289.770 187.413 288.198 C 187.088 287.333,185.934 284.236,184.849 281.316 L 182.875 276.007 180.580 276.003 L 178.286 276.000 177.793 277.313 M196.727 276.678 C 196.579 277.061,195.411 280.164,194.131 283.572 L 191.803 289.769 193.819 289.697 L 195.835 289.625 196.188 288.563 L 196.542 287.500 199.238 287.500 L 201.935 287.500 202.250 288.625 L 202.565 289.750 204.629 289.750 L 206.692 289.750 204.134 282.938 L 201.575 276.125 199.285 276.053 L 196.995 275.981 196.727 276.678 M208.000 282.860 L 208.000 289.750 210.000 289.750 L 212.000 289.750 212.000 287.500 L 212.000 285.250 214.014 285.250 C 218.459 285.250,220.257 283.864,220.246 280.446 C 220.235 276.892,218.981 276.145,212.857 276.048 L 208.000 275.970 208.000 282.860 M222.000 282.875 L 222.000 289.750 223.875 289.750 L 225.750 289.750 225.750 288.019 C 225.750 286.297,225.755 286.285,226.795 285.394 C 228.145 284.239,227.920 284.105,229.715 287.125 L 231.275 289.750 233.513 289.750 C 234.743 289.750,235.750 289.693,235.750 289.624 C 235.750 289.555,234.622 287.745,233.243 285.602 L 230.736 281.705 231.680 280.616 C 232.200 280.017,233.340 278.733,234.213 277.763 L 235.801 276.000 233.338 276.016 L 230.875 276.033 228.375 278.895 L 225.875 281.756 225.805 278.878 L 225.734 276.000 223.867 276.000 L 222.000 276.000 222.000 282.875 M237.500 282.875 L 237.500 289.750 243.375 289.750 L 249.250 289.750 249.250 288.250 L 249.250 286.750 245.250 286.750 L 241.250 286.750 241.250 285.500 L 241.250 284.250 244.625 284.250 L 248.000 284.250 248.000 282.750 L 248.000 281.250 244.625 281.250 L 241.250 281.250 241.250 280.125 L 241.250 279.000 245.125 279.000 L 249.000 279.000 249.000 277.500 L 249.000 276.000 243.250 276.000 L 237.500 276.000 237.500 282.875 M255.250 282.854 L 255.250 289.750 259.014 289.750 C 266.003 289.750,268.000 288.233,268.000 282.922 C 268.000 277.582,266.275 276.176,259.563 276.044 L 255.250 275.959 255.250 282.854 M269.226 278.553 C 269.607 279.967,270.401 283.070,270.991 285.447 L 272.064 289.769 274.219 289.697 L 276.374 289.625 277.385 285.190 L 278.396 280.754 279.389 285.190 L 280.382 289.625 282.532 289.697 L 284.683 289.768 286.342 283.138 C 287.254 279.491,288.000 276.393,288.000 276.253 C 288.000 276.105,287.239 276.000,286.168 276.000 L 284.335 276.000 283.895 278.063 C 283.654 279.197,283.223 281.137,282.940 282.375 L 282.424 284.625 281.631 281.000 C 281.196 279.006,280.761 277.066,280.665 276.688 C 280.492 276.007,280.469 276.000,278.430 276.000 L 276.369 276.000 275.503 280.110 C 275.027 282.371,274.592 284.176,274.538 284.121 C 274.484 284.067,274.029 282.245,273.527 280.074 L 272.616 276.125 270.575 276.053 L 268.535 275.980 269.226 278.553 M292.227 276.678 C 292.079 277.061,290.911 280.164,289.631 283.572 L 287.303 289.769 289.319 289.697 L 291.335 289.625 291.688 288.563 L 292.042 287.500 294.738 287.500 L 297.435 287.500 297.750 288.625 L 298.065 289.750 300.129 289.750 L 302.192 289.750 299.634 282.938 L 297.075 276.125 294.785 276.053 L 292.495 275.981 292.227 276.678 M303.500 282.875 L 303.500 289.750 305.500 289.750 L 307.500 289.750 307.500 287.375 L 307.500 285.000 308.938 285.004 L 310.375 285.008 311.473 287.379 L 312.571 289.750 314.660 289.750 C 315.810 289.750,316.746 289.666,316.742 289.563 C 316.737 289.459,316.145 288.240,315.426 286.852 L 314.119 284.329 314.705 283.888 C 317.071 282.103,316.731 277.761,314.125 276.500 C 313.202 276.053,312.581 276.000,308.296 276.000 L 303.500 276.000 303.500 282.875 M312.145 279.360 C 313.292 280.928,312.205 282.089,309.475 282.213 L 307.500 282.303 307.500 280.501 L 307.500 278.699 309.645 278.787 C 311.417 278.860,311.852 278.959,312.145 279.360 M216.111 279.556 C 217.208 281.123,216.221 282.250,213.750 282.250 L 212.000 282.250 212.000 280.625 L 212.000 279.000 213.861 279.000 C 215.500 279.000,215.768 279.066,216.111 279.556 M262.782 279.392 C 263.741 279.888,264.250 281.095,264.250 282.875 C 264.250 285.682,263.220 286.750,260.512 286.750 L 259.000 286.750 259.000 282.875 L 259.000 279.000 260.512 279.000 C 261.396 279.000,262.340 279.163,262.782 279.392 M200.003 281.883 C 200.414 283.099,200.750 284.185,200.750 284.297 C 200.750 284.409,200.034 284.500,199.159 284.500 L 197.568 284.500 198.342 282.016 C 198.768 280.650,199.147 279.564,199.186 279.602 C 199.224 279.641,199.592 280.667,200.003 281.883 M295.503 281.883 C 295.914 283.099,296.250 284.185,296.250 284.297 C 296.250 284.409,295.534 284.500,294.659 284.500 L 293.068 284.500 293.842 282.016 C 294.268 280.650,294.647 279.564,294.686 279.602 C 294.724 279.641,295.092 280.667,295.503 281.883 M181.220 281.690 C 181.547 282.754,181.870 283.822,181.937 284.063 C 182.044 284.447,181.860 284.500,180.426 284.500 L 178.794 284.500 179.577 282.125 C 180.518 279.267,180.478 279.277,181.220 281.690 " stroke="none" fill="#545454" fill-rule="evenodd"></path><path id="path4" d="M193.308 155.500 C 193.308 155.981,193.359 156.178,193.422 155.938 C 193.485 155.697,193.485 155.303,193.422 155.063 C 193.359 154.822,193.308 155.019,193.308 155.500 M193.313 162.375 C 193.316 162.925,193.367 163.121,193.427 162.810 C 193.487 162.499,193.484 162.049,193.422 161.810 C 193.359 161.571,193.310 161.825,193.313 162.375 M169.500 167.125 C 169.966 167.606,170.404 168.000,170.473 168.000 C 170.542 168.000,170.216 167.606,169.750 167.125 C 169.284 166.644,168.846 166.250,168.777 166.250 C 168.708 166.250,169.034 166.644,169.500 167.125 M172.990 170.813 C 173.603 171.466,174.137 172.000,174.177 172.000 C 174.365 172.000,174.166 171.776,173.063 170.740 L 171.875 169.625 172.990 170.813 M177.125 174.750 C 177.662 175.300,178.158 175.750,178.226 175.750 C 178.295 175.750,177.912 175.300,177.375 174.750 C 176.838 174.200,176.342 173.750,176.274 173.750 C 176.205 173.750,176.588 174.200,177.125 174.750 " stroke="none" fill="#d8926c" fill-rule="evenodd"></path></g></svg>